<?xml version="1.0" encoding="utf-8"?>
<svg xmlns="http://www.w3.org/2000/svg" xmlns:xlink="http://www.w3.org/1999/xlink">
    <symbol viewBox="0 0 16 16" class="bi bi-archive" fill="currentColor" id="archive">
        <path fill-rule="evenodd"
            d="M0 2a1 1 0 011-1h14a1 1 0 011 1v2a1 1 0 01-1 1v7.5a2.5 2.5 0 01-2.5 2.5h-9A2.5 2.5 0 011 12.5V5a1 1 0 01-1-1V2zm2 3v7.5A1.5 1.5 0 003.5 14h9a1.5 1.5 0 001.5-1.5V5H2zm13-3H1v2h14V2zM5 7.5a.5.5 0 01.5-.5h5a.5.5 0 010 1h-5a.5.5 0 01-.5-.5z" />
    </symbol>
    <symbol viewBox="0 0 16 16" class="bi bi-archive-fill" fill="currentColor" id="archive-fill">
        <path fill-rule="evenodd"
            d="M12.643 15C13.979 15 15 13.845 15 12.5V5H1v7.5C1 13.845 2.021 15 3.357 15h9.286zM5.5 7a.5.5 0 000 1h5a.5.5 0 000-1h-5zM.8 1a.8.8 0 00-.8.8V3a.8.8 0 00.8.8h14.4A.8.8 0 0016 3V1.8a.8.8 0 00-.8-.8H.8z" />
    </symbol>
    <symbol viewBox="0 0 16 16" class="bi bi-bell" fill="currentColor" id="bell">
        <path d="M8 16a2 2 0 002-2H6a2 2 0 002 2z" />
        <path fill-rule="evenodd"
            d="M8 1.918l-.797.161A4.002 4.002 0 004 6c0 .628-.134 2.197-.459 3.742-.16.767-.376 1.566-.663 2.258h10.244c-.287-.692-.502-1.49-.663-2.258C12.134 8.197 12 6.628 12 6a4.002 4.002 0 00-3.203-3.92L8 1.917zM14.22 12c.223.447.481.801.78 1H1c.299-.199.557-.553.78-1C2.68 10.2 3 6.88 3 6c0-2.42 1.72-4.44 4.005-4.901a1 1 0 111.99 0A5.002 5.002 0 0113 6c0 .88.32 4.2 1.22 6z" />
    </symbol>
    <symbol viewBox="0 0 16 16" class="bi bi-bell-fill" fill="currentColor" id="bell-fill">
        <path
            d="M8 16a2 2 0 002-2H6a2 2 0 002 2zm.995-14.901a1 1 0 10-1.99 0A5.002 5.002 0 003 6c0 1.098-.5 6-2 7h14c-1.5-1-2-5.902-2-7 0-2.42-1.72-4.44-4.005-4.901z" />
    </symbol>
    <symbol viewBox="0 0 16 16" class="bi bi-bookmark-check" fill="currentColor" id="bookmark-check">
        <path fill-rule="evenodd"
            d="M2 2a2 2 0 012-2h8a2 2 0 012 2v13.5a.5.5 0 01-.777.416L8 13.101l-5.223 2.815A.5.5 0 012 15.5V2zm2-1a1 1 0 00-1 1v12.566l4.723-2.482a.5.5 0 01.554 0L13 14.566V2a1 1 0 00-1-1H4z" />
        <path fill-rule="evenodd"
            d="M10.854 5.146a.5.5 0 010 .708l-3 3a.5.5 0 01-.708 0l-1.5-1.5a.5.5 0 11.708-.708L7.5 7.793l2.646-2.647a.5.5 0 01.708 0z" />
    </symbol>
    <symbol viewBox="0 0 16 16" class="bi bi-bookmark-check-fill" fill="currentColor" id="bookmark-check-fill">
        <path fill-rule="evenodd"
            d="M4 0a2 2 0 00-2 2v13.5a.5.5 0 00.74.439L8 13.069l5.26 2.87A.5.5 0 0014 15.5V2a2 2 0 00-2-2H4zm6.854 5.854a.5.5 0 00-.708-.708L7.5 7.793 6.354 6.646a.5.5 0 10-.708.708l1.5 1.5a.5.5 0 00.708 0l3-3z" />
    </symbol>
    <symbol viewBox="0 0 16 16" class="bi bi-chevron-expand" fill="currentColor" id="chevron-expand">
        <path fill-rule="evenodd"
            d="M3.646 9.146a.5.5 0 01.708 0L8 12.793l3.646-3.647a.5.5 0 01.708.708l-4 4a.5.5 0 01-.708 0l-4-4a.5.5 0 010-.708zm0-2.292a.5.5 0 00.708 0L8 3.207l3.646 3.647a.5.5 0 00.708-.708l-4-4a.5.5 0 00-.708 0l-4 4a.5.5 0 000 .708z" />
    </symbol>
    <symbol viewBox="0 0 16 16" class="bi bi-gear" fill="currentColor" id="gear">
        <path fill-rule="evenodd"
            d="M8.837 1.626c-.246-.835-1.428-.835-1.674 0l-.094.319A1.873 1.873 0 014.377 3.06l-.292-.16c-.764-.415-1.6.42-1.184 1.185l.159.292a1.873 1.873 0 01-1.115 2.692l-.319.094c-.835.246-.835 1.428 0 1.674l.319.094a1.873 1.873 0 011.115 2.693l-.16.291c-.415.764.42 1.6 1.185 1.184l.292-.159a1.873 1.873 0 012.692 1.116l.094.318c.246.835 1.428.835 1.674 0l.094-.319a1.873 1.873 0 012.693-1.115l.291.16c.764.415 1.6-.42 1.184-1.185l-.159-.291a1.873 1.873 0 011.116-2.693l.318-.094c.835-.246.835-1.428 0-1.674l-.319-.094a1.873 1.873 0 01-1.115-2.692l.16-.292c.415-.764-.42-1.6-1.185-1.184l-.291.159A1.873 1.873 0 018.93 1.945l-.094-.319zm-2.633-.283c.527-1.79 3.065-1.79 3.592 0l.094.319a.873.873 0 001.255.52l.292-.16c1.64-.892 3.434.901 2.54 2.541l-.159.292a.873.873 0 00.52 1.255l.319.094c1.79.527 1.79 3.065 0 3.592l-.319.094a.873.873 0 00-.52 1.255l.16.292c.893 1.64-.902 3.434-2.541 2.54l-.292-.159a.873.873 0 00-1.255.52l-.094.319c-.527 1.79-3.065 1.79-3.592 0l-.094-.319a.873.873 0 00-1.255-.52l-.292.16c-1.64.893-3.433-.902-2.54-2.541l.159-.292a.873.873 0 00-.52-1.255l-.319-.094c-1.79-.527-1.79-3.065 0-3.592l.319-.094a.873.873 0 00.52-1.255l-.16-.292c-.892-1.64.902-3.433 2.541-2.54l.292.159a.873.873 0 001.255-.52l.094-.319z" />
        <path fill-rule="evenodd"
            d="M8 5.754a2.246 2.246 0 100 4.492 2.246 2.246 0 000-4.492zM4.754 8a3.246 3.246 0 116.492 0 3.246 3.246 0 01-6.492 0z" />
    </symbol>
    <symbol viewBox="0 0 16 16" class="bi bi-gear-fill" fill="currentColor" id="gear-fill">
        <path fill-rule="evenodd"
            d="M9.405 1.05c-.413-1.4-2.397-1.4-2.81 0l-.1.34a1.464 1.464 0 01-2.105.872l-.31-.17c-1.283-.698-2.686.705-1.987 1.987l.169.311c.446.82.023 1.841-.872 2.105l-.34.1c-1.4.413-1.4 2.397 0 2.81l.34.1a1.464 1.464 0 01.872 2.105l-.17.31c-.698 1.283.705 2.686 1.987 1.987l.311-.169a1.464 1.464 0 012.105.872l.1.34c.413 1.4 2.397 1.4 2.81 0l.1-.34a1.464 1.464 0 012.105-.872l.31.17c1.283.698 2.686-.705 1.987-1.987l-.169-.311a1.464 1.464 0 01.872-2.105l.34-.1c1.4-.413 1.4-2.397 0-2.81l-.34-.1a1.464 1.464 0 01-.872-2.105l.17-.31c.698-1.283-.705-2.686-1.987-1.987l-.311.169a1.464 1.464 0 01-2.105-.872l-.1-.34zM8 10.93a2.929 2.929 0 100-5.86 2.929 2.929 0 000 5.858z" />
    </symbol>
    <symbol viewBox="0 0 16 16" class="bi bi-house-door" fill="currentColor" id="house-door">
        <path fill-rule="evenodd"
            d="M7.646 1.146a.5.5 0 01.708 0l6 6a.5.5 0 01.146.354v7a.5.5 0 01-.5.5H9.5a.5.5 0 01-.5-.5v-4H7v4a.5.5 0 01-.5.5H2a.5.5 0 01-.5-.5v-7a.5.5 0 01.146-.354l6-6zM2.5 7.707V14H6v-4a.5.5 0 01.5-.5h3a.5.5 0 01.5.5v4h3.5V7.707L8 2.207l-5.5 5.5z" />
        <path fill-rule="evenodd" d="M13 2.5V6l-2-2V2.5a.5.5 0 01.5-.5h1a.5.5 0 01.5.5z" />
    </symbol>
    <symbol viewBox="0 0 16 16" class="bi bi-house-door-fill" fill="currentColor" id="house-door-fill">
        <path
            d="M6.5 10.995V14.5a.5.5 0 01-.5.5H2a.5.5 0 01-.5-.5v-7a.5.5 0 01.146-.354l6-6a.5.5 0 01.708 0l6 6a.5.5 0 01.146.354v7a.5.5 0 01-.5.5h-4a.5.5 0 01-.5-.5V11c0-.25-.25-.5-.5-.5H7c-.25 0-.5.25-.5.495z" />
        <path fill-rule="evenodd" d="M13 2.5V6l-2-2V2.5a.5.5 0 01.5-.5h1a.5.5 0 01.5.5z" />
    </symbol>
    <symbol viewBox="0 0 16 16" class="bi bi-info-circle" fill="currentColor" id="info-circle">
        <path fill-rule="evenodd" d="M8 15A7 7 0 108 1a7 7 0 000 14zm0 1A8 8 0 108 0a8 8 0 000 16z" />
        <path
            d="M8.93 6.588l-2.29.287-.082.38.45.083c.294.07.352.176.288.469l-.738 3.468c-.194.897.105 1.319.808 1.319.545 0 1.178-.252 1.465-.598l.088-.416c-.2.176-.492.246-.686.246-.275 0-.375-.193-.304-.533L8.93 6.588z" />
        <circle cx="8" cy="4.5" r="1" />
    </symbol>
    <symbol viewBox="0 0 16 16" class="bi bi-info-circle-fill" fill="currentColor" id="info-circle-fill">
        <path fill-rule="evenodd"
            d="M8 16A8 8 0 108 0a8 8 0 000 16zm.93-9.412l-2.29.287-.082.38.45.083c.294.07.352.176.288.469l-.738 3.468c-.194.897.105 1.319.808 1.319.545 0 1.178-.252 1.465-.598l.088-.416c-.2.176-.492.246-.686.246-.275 0-.375-.193-.304-.533L8.93 6.588zM8 5.5a1 1 0 100-2 1 1 0 000 2z" />
    </symbol>
    <symbol viewBox="0 0 16 16" class="bi bi-key" fill="currentColor" id="key">
        <path fill-rule="evenodd"
            d="M0 8a4 4 0 017.465-2H14a.5.5 0 01.354.146l1.5 1.5a.5.5 0 010 .708l-1.5 1.5a.5.5 0 01-.708 0L13 9.207l-.646.647a.5.5 0 01-.708 0L11 9.207l-.646.647a.5.5 0 01-.708 0L9 9.207l-.646.647A.5.5 0 018 10h-.535A4 4 0 010 8zm4-3a3 3 0 102.712 4.285A.5.5 0 017.163 9h.63l.853-.854a.5.5 0 01.708 0l.646.647.646-.647a.5.5 0 01.708 0l.646.647.646-.647a.5.5 0 01.708 0l.646.647.793-.793-1-1h-6.63a.5.5 0 01-.451-.285A3 3 0 004 5z" />
        <path d="M4 8a1 1 0 11-2 0 1 1 0 012 0z" />
    </symbol>
    <symbol viewBox="0 0 16 16" class="bi bi-key-fill" fill="currentColor" id="key-fill">
        <path fill-rule="evenodd"
            d="M3.5 11.5a3.5 3.5 0 113.163-5H14L15.5 8 14 9.5l-1-1-1 1-1-1-1 1-1-1-1 1H6.663a3.5 3.5 0 01-3.163 2zM2.5 9a1 1 0 100-2 1 1 0 000 2z" />
    </symbol>
    <symbol viewBox="0 0 16 16" class="bi bi-pencil-square" fill="currentColor" id="pencil-square">
        <path
            d="M15.502 1.94a.5.5 0 010 .706L14.459 3.69l-2-2L13.502.646a.5.5 0 01.707 0l1.293 1.293zm-1.75 2.456l-2-2L4.939 9.21a.5.5 0 00-.121.196l-.805 2.414a.25.25 0 00.316.316l2.414-.805a.5.5 0 00.196-.12l6.813-6.814z" />
        <path fill-rule="evenodd"
            d="M1 13.5A1.5 1.5 0 002.5 15h11a1.5 1.5 0 001.5-1.5v-6a.5.5 0 00-1 0v6a.5.5 0 01-.5.5h-11a.5.5 0 01-.5-.5v-11a.5.5 0 01.5-.5H9a.5.5 0 000-1H2.5A1.5 1.5 0 001 2.5v11z" />
    </symbol>
    <symbol viewBox="0 0 16 16" class="bi bi-reply" fill="currentColor" id="reply">
        <path fill-rule="evenodd"
            d="M9.502 5.013a.144.144 0 00-.202.134V6.3a.5.5 0 01-.5.5c-.667 0-2.013.005-3.3.822-.984.624-1.99 1.76-2.595 3.876C3.925 10.515 5.09 9.982 6.11 9.7a8.741 8.741 0 011.921-.306 7.403 7.403 0 01.798.008h.013l.005.001h.001L8.8 9.9l.05-.498a.5.5 0 01.45.498v1.153c0 .108.11.176.202.134l3.984-2.933a.494.494 0 01.042-.028.147.147 0 000-.252.494.494 0 01-.042-.028L9.502 5.013zM8.3 10.386a7.745 7.745 0 00-1.923.277c-1.326.368-2.896 1.201-3.94 3.08a.5.5 0 01-.933-.305c.464-3.71 1.886-5.662 3.46-6.66 1.245-.79 2.527-.942 3.336-.971v-.66a1.144 1.144 0 011.767-.96l3.994 2.94a1.147 1.147 0 010 1.946l-3.994 2.94a1.144 1.144 0 01-1.767-.96v-.667z" />
    </symbol>
    <symbol viewBox="0 0 16 16" class="bi bi-reply-all" fill="currentColor" id="reply-all">
        <path fill-rule="evenodd"
            d="M8.002 5.013a.144.144 0 00-.202.134V6.3a.5.5 0 01-.5.5c-.667 0-2.013.005-3.3.822-.984.624-1.99 1.76-2.595 3.876C2.425 10.515 3.59 9.982 4.61 9.7a8.741 8.741 0 011.921-.306 7.403 7.403 0 01.798.008h.013l.005.001h.001L7.3 9.9l.05-.498a.5.5 0 01.45.498v1.153c0 .108.11.176.202.134l3.984-2.933a.494.494 0 01.042-.028.147.147 0 000-.252.494.494 0 01-.042-.028L8.002 5.013zM6.8 10.386a7.745 7.745 0 00-1.923.277c-1.326.368-2.896 1.201-3.94 3.08a.5.5 0 01-.933-.305c.464-3.71 1.886-5.662 3.46-6.66 1.245-.79 2.527-.942 3.336-.971v-.66a1.144 1.144 0 011.767-.96l3.994 2.94a1.147 1.147 0 010 1.946l-3.994 2.94a1.144 1.144 0 01-1.767-.96v-.667z" />
        <path fill-rule="evenodd"
            d="M10.868 4.293a.5.5 0 01.7-.106l3.993 2.94a1.147 1.147 0 010 1.946l-3.994 2.94a.5.5 0 01-.593-.805l4.012-2.954a.493.493 0 01.042-.028.147.147 0 000-.252.496.496 0 01-.042-.028l-4.012-2.954a.5.5 0 01-.106-.699z" />
    </symbol>
    <symbol viewBox="0 0 16 16" class="bi bi-search" fill="currentColor" id="search">
        <path fill-rule="evenodd"
            d="M10.442 10.442a1 1 0 011.415 0l3.85 3.85a1 1 0 01-1.414 1.415l-3.85-3.85a1 1 0 010-1.415z" />
        <path fill-rule="evenodd"
            d="M6.5 12a5.5 5.5 0 100-11 5.5 5.5 0 000 11zM13 6.5a6.5 6.5 0 11-13 0 6.5 6.5 0 0113 0z" />
    </symbol>
    <symbol viewBox="0 0 16 16" class="bi bi-share" fill="currentColor" id="share">
        <path fill-rule="evenodd"
            d="M13.5 1a1.5 1.5 0 100 3 1.5 1.5 0 000-3zM11 2.5a2.5 2.5 0 11.603 1.628l-6.718 3.12a2.499 2.499 0 010 1.504l6.718 3.12a2.5 2.5 0 11-.488.876l-6.718-3.12a2.5 2.5 0 110-3.256l6.718-3.12A2.5 2.5 0 0111 2.5zm-8.5 4a1.5 1.5 0 100 3 1.5 1.5 0 000-3zm11 5.5a1.5 1.5 0 100 3 1.5 1.5 0 000-3z" />
    </symbol>
</svg>
