<svg xmlns="http://www.w3.org/2000/svg" viewBox="0 0 504.123 504.123" xmlns:v="https://vecta.io/nano">
    <circle cx="252.062" cy="252.062" r="252.062" fill="rgba(25,135,84,0.5)" />
    <path
        d="M168.96 271.36h88.615c6.302 0 11.815 3.545 14.178 9.058h0c3.938 8.27-.394 18.117-9.058 21.268L227.25 314.29c-3.545 1.182-3.938 6.302-.394 7.877L269.4 343.04c5.908 3.15 12.997 3.545 19.298 1.575l89.797-27.963c12.21-3.938 25.206 2.757 29.538 14.572h0c4.332 12.21-1.575 25.994-14.178 30.72l-121.305 46.08c-7.09 2.757-14.966 2.757-22.055-.394l-104.762-44.1 23.237-92.16z"
        fill="#ffd05b" />
    <path d="M142.966 375.335l-48.443-12.21 29.145-115.79 48.443 12.2z" fill="#ff7058" />
    <circle cx="123.668" cy="349.342" r="10.24" fill="#fff" />
    <path d="M176.443 107.52H416.69v134.302H176.443z" fill="#2c9984" />
    <g fill="#e6e9ee">
        <path
            d="M390.302 230.006H203.225v-2.757c0-6.302-5.12-11.815-11.815-11.815h-2.757v-81.526h2.757c6.302 0 11.815-5.12 11.815-11.815v-2.757h187.47v2.757c0 6.302 5.12 11.815 11.815 11.815h2.757v81.526h-2.757c-6.302 0-11.815 5.12-11.815 11.815v2.757h-.394zm-181.564-5.514h176.05a17.56 17.56 0 0 1 14.572-14.572v-70.105a17.56 17.56 0 0 1-14.572-14.572h-176.05a17.56 17.56 0 0 1-14.572 14.572v70.105a17.56 17.56 0 0 1 14.572 14.572z" />
        <ellipse cx="296.566" cy="174.868" rx="36.628" ry="43.323" />
    </g>
    <path
        d="M294.99 207.163v-5.514c-7.09-.788-13.39-3.938-19.298-8.665l5.514-6.695c4.332 3.938 8.665 5.908 13.39 6.695v-14.966c-5.908-1.575-10.24-3.15-12.997-5.514s-3.938-5.514-3.938-10.24c0-4.332 1.575-8.27 4.726-11.028s7.09-4.332 12.21-4.726v-3.938h5.12v3.938c5.514.394 11.028 2.363 16.148 5.908l-4.726 7.09c-3.545-2.363-7.09-3.938-11.028-4.332v14.572h.394c5.908 1.575 10.24 3.15 12.997 5.514s4.332 5.908 4.332 10.24c0 4.726-1.575 8.27-4.726 11.028s-7.483 4.332-12.603 4.726v5.514h-5.514v.394zm-5.514-50.412c-1.182 1.182-1.97 2.757-1.97 4.332s.394 3.15 1.575 3.938c1.182 1.182 3.15 1.97 5.908 2.757v-13.39c-2.363.395-4.333 1.182-5.514 2.364zm16.54 34.264c1.575-1.182 2.363-2.757 2.363-4.332 0-1.97-.394-3.15-1.575-4.332s-3.15-1.97-6.302-3.15v13.785c1.97 0 3.94-.788 5.514-1.97z"
        fill="#2c9984" />
    <g fill="#e6e9ee">
        <circle cx="227.249" cy="174.868" r="9.058" />
        <circle cx="366.277" cy="174.868" r="9.058" />
    </g>
</svg>
