<svg xmlns="http://www.w3.org/2000/svg" viewBox="0 0 508 508" xmlns:v="https://vecta.io/nano">
    <circle cx="254" cy="254" r="254" fill="rgba(37,182,211,0.5)" />
    <path
        d="M355.2 295.6l-110.4-116-66.4-8.8-64 67.2 5.6 31.2 109.2 109.2a18.35 18.35 0 0 0 26 0h0c6.8-6.8 7.2-18 .8-25.2l6.4 6.4a18.35 18.35 0 0 0 26 0c6.8-6.8 7.2-18 .8-25.2l6.4 6.4a18.35 18.35 0 0 0 26 0c6.8-6.8 7.2-18 .8-25.2l6.4 6.4a18.35 18.35 0 0 0 26 0c7.6-7.2 7.6-19.2.4-26.4z"
        fill="#ffd05b" />
    <path
        d="M206.8 192.4c3.2-2.4 8-2.8 11.2-4.4l23.2-7.2c8.8-1.2 17.6-6 27.2-6.4 6.8-.4 13.6 1.6 20 3.2l58.4 15.6 29.2 75.6c.4.8.4 1.2.4 2-.4.8-.8 1.2-1.6 1.6-4.8 3.2-26 17.2-27.2 16-24.4-22.8-44-37.2-63.6-56-5.2-5.2-18.8-16-18.8-16s-18.4 0-31.6-.8c-3.6 6.8-9.2 17.6-14.8 23.2 0 0-10 3.6-18 5.2-3.2.8-6.4-2-6.8-5.2-.8-12.8 1.6-25.6 6.8-37.6 1.2-3.6 3.2-6.8 6-8.8z"
        fill="#324a5e" />
    <path
        d="M444.4 258.4l-37.6-100c-1.6-4.4-6.8-6.8-11.2-5.2L345.2 172c-4.4 1.6-6.8 6.8-5.2 11.2l37.6 100c1.6 4.4 6.8 6.8 11.2 5.2l50.4-18.8c4.8-2 6.8-6.8 5.2-11.2z"
        fill="#ff7058" />
    <g fill="#324a5e">
        <path
            d="M188.4 162L148 126.4c-3.6-3.2-8.8-2.8-12 .8l-70.8 80c-3.2 3.6-2.8 8.8.8 12l40.4 35.6c3.6 3.2 8.8 2.8 12-.8l70.8-80c3.2-3.2 2.8-8.8-.8-12zm-50 97.6l-18 13.6c-8 6-10.8 17.6-4.8 26s18 10.4 26 4.4l6.8-4.8c.4-.4 1.2-.8 1.6-1.2l10.8-8c8.8-6.4 10-19.6 2-27.6l-.4-.4c-6.4-6.4-16.8-7.2-24-2z" />
        <path
            d="M180 320.8l6.8-4.8c9.2-6.8 10-20 2-27.6h0c-6.4-6.4-16.8-7.2-24-1.6l-16.4 12.4c-7.6 6.8-8 18.8-.8 26.4 6.4 6.8 17.2 7.2 24.8 1.6l6-4.4c.8-1.2 1.2-1.6 1.6-2zm-30-23.6c-.4.4-1.2.8-1.6 1.2l1.6-1.2z" />
        <path
            d="M210.4 344l2.8-2c9.2-6.8 10-20 2-27.6h0c-6.4-6.4-16.8-7.2-24-1.6l-12.8 9.2c-7.6 6.8-8 18.8-.8 26.4 6.4 6.8 17.2 7.2 24.8 1.6l6-4.4c.8-.4 1.2-1.2 2-1.6z" />
        <path
            d="M180 320.8c-.4.4-1.2.8-1.6 1.2l1.6-1.2zm28.8 24.8c-7.6 6.8-8 18.8-.8 26.4 6.4 6.8 17.2 7.2 24.8 1.6l6.8-4.8c9.2-6.8 10-20 2-28h0c-6.4-6.4-16.8-7.2-24-1.6l-8.8 6.4z" />
    </g>
    <circle cx="404.8" cy="255.6" r="9.2" fill="#fff" />
    <circle cx="102.8" cy="218" r="9.2" fill="#ff7058" />
</svg>
