<svg xmlns="http://www.w3.org/2000/svg" viewBox="0 0 471.836 471.836" xmlns:v="https://vecta.io/nano">
    <circle cx="235.918" cy="235.918" r="235.918" fill="rgba(196,196,196,0.5)" />
    <path d="M388.047 357.188L127.833 398.74 94.285 193.224l260.213-41.552z" fill="#f2ef8f" />
    <path
        d="M333.825 213.266l-203.057 32.448-2.053-12.847 203.057-32.448zm5.86 32.114l-203.054 32.427-2.05-12.84 203.054-32.427zm5.374 34.147L142 311.955l-2.052-12.847L343 266.68zm-85.786 47.59L147.332 345l-2.066-12.845 111.946-17.886z"
        fill="#8f8972" />
    <path d="M225.104 201.572l-6.035-37.59h12.755l-6.207 37.59z" fill="#7d8880" />
    <path
        d="M197.348 72.384l2.166 3.735 13.755 12.553-6.86 50.27 2.635 22.96 9.826 5.575 18.652.457 13.684-7.96-8.95-14.462-5.086-54.772.262-7.487 12.236-7.46 1.493-3.813z"
        fill="#f06668" />
    <path
        d="M248.02 164.787c-4.572 3.027-10.174 4.992-16.292 5.658l-2.058.176c-.236.02-.464.052-.7.052l-1.9.056c-3.753-.02-7.38-.513-10.72-1.493-12.524-3.633-21.55-13.35-21.717-24.88-.086-6.466 3.308-7.81 9.672-11.977l7.43-43.064c-6.028-2.043-10.802-8.947-13.246-14.196 8.254 6.88 17.957 8.52 24.9 8.587l.91 7.416c4.426.015 8.093-.636 10.642-1.336l.007-.026 1.216-7.607c5.422-1.392 10.174-3.633 13.497-6.357-1.998 4.5-5.28 9.946-9.47 11.966l7.465 43.393c6.88 3.948 12.584 5.616 12.685 12.295.135 8.592-4.7 16.3-12.32 21.336zm-12.947-73.65c-2.623.7-6.31 1.343-10.754 1.325l-.296 58.993c1.916.172 3.847.24 5.736.086 4.015-.337 7.633-1.5 10.6-3.3l-5.286-57.104zm13.61 69.548l-7.903-11.14c-3.102 1.815-6.806 2.986-10.907 3.33-1.983.168-4.007.08-6.028-.1l-5.77 12.655a47.41 47.41 0 0 0 9.744.868c7.936-.116 15.195-2.14 20.834-5.422l.03-.19zM227.346 82.26c-6.94.51-20.04-.116-29.998-9.875-.65-1.25-1.055-2.552-1.07-3.914-.02-1.474.378-2.904 1.096-4.27 3.356-6.238 14.002-10.89 26.686-11.076 12.685-.168 23.453 4.198 26.97 10.33.778 1.343 1.205 2.765 1.23 4.243.02 1.482-.37 2.92-1.104 4.284a21.56 21.56 0 0 1-.281.745c-4.168 4.925-13.657 8.812-23.53 9.53z"
        fill="#e84849" /></svg>
