<svg xmlns="http://www.w3.org/2000/svg" viewBox="0 0 496.2 496.2" xmlns:v="https://vecta.io/nano">
    <path d="M496.2 248.1C496.2 111.1 385.1 0 248.1 0S0 111.1 0 248.1s111.1 248.1 248.1 248.1 248.1-111.1 248.1-248.1z"
        fill="rgba(37,182,211,0.5)" />
    <path
        d="M442.4 247.2c0 8.2-5.8 14.8-13 14.8h-67.1c-7.1 0-13-6.6-13-14.8h0c0-8.2 5.8-14.8 13-14.8h67.1c7.2-.1 13 6.6 13 14.8h0z"
        fill="#e8deb3" />
    <path
        d="M413.5 244.3c0-10.8-61.5-77.3-83.5-77.3H113.3C91.2 167 80 179.6 80 201.7v86.6c0 22.1 11.2 33.3 33.3 33.3H330c22.1-.1 83.5-66.6 83.5-77.3zm-76.8 2.8c0-8.6 7-15.5 15.5-15.5 8.6 0 15.5 7 15.5 15.5 0 8.6-7 15.5-15.5 15.5-8.6.1-15.5-6.9-15.5-15.5z"
        fill="#abd9df" />
    <path
        d="M269.4 213.5c0 6.6-7.5 11.3-7.9 10.7-5.6-6.4-15.1-11.3-24.8-11.3-9.8 0-15.8 4.4-15.8 11 0 7.6 8.1 9.7 19.3 12.2 13.5 2.9 31.2 8.4 31.2 27.5 0 14.8-10.3 25-27.4 27.7v5.7c0 6.7-2.6 10-8.5 10h-.7c-6.1 0-8.3-3.1-8.3-10v-5.4c-17.7-1.9-27.8-10-27.8-18.2 0-6.3 7-10.8 7.6-10.3 5.6 6.7 16.4 12.3 27.8 12.3 10.4 0 16.4-4.4 16.4-11 0-8.1-9.1-10.3-19.8-12.7-12.9-2.8-29.9-7.9-29.9-27.2 0-14.1 10-24.2 25.8-27.1V192c0-6.7 2.5-10 8.4-10h.9c6 0 8.3 3.1 8.3 10v5c16.3 1.7 25.2 9 25.2 16.5z"
        fill="#226e72" />
    <path d="M442.4 250.2c0 7.2-5.8 13-13 13H362c-7.2 0-13-5.8-13-13h0c0-7.2 5.8-13 13-13h67.4c7.2 0 13 5.8 13 13h0z"
        fill="#f7f5ed" />
</svg>
